<?xml version="1.0" encoding="UTF-8"?>
<svg id="Layer_2" data-name="Layer 2" xmlns="http://www.w3.org/2000/svg" viewBox="0 0 136.31 135.79">

  <g id="Layer_1-2" data-name="Layer 1">
    <g>
      <path fill="#21a0d7" d="M.04,66.29c.18-1.45.3-2.72.42-4.08.86-9.97,3.68-19.34,8.75-27.95C19.3,17.15,34.04,6.16,53.45,1.76c14.84-3.37,29.37-1.92,43.15,4.59,20.15,9.52,33.01,25.25,37.93,46.95,4.13,18.21,1.05,35.49-9.09,51.23-10.28,15.96-24.91,25.88-43.51,29.9-.47.1-.95.14-1.42.21-.03-.03-.05-.07-.08-.1.18-.07.36-.16.54-.21,10.19-2.49,18.94-7.5,26.33-14.92,2.2-2.2,3.93-4.78,6.02-7.07.08-.1.17-.2.25-.3l-.02.02c.24-.09.38-.22.25-.5h0c.54.12.64-.38.86-.66,10.5-13.3,14.71-28.37,12.62-45.15-1.52-12.16-6.41-22.9-14.73-31.85-14.93-16.06-33.49-22.56-55.09-18.74-18.93,3.35-33,14.04-42.09,30.97-6.33,11.79-8.1,24.43-5.91,37.59,1.67,10.08,5.82,19.1,12.23,27.07.24.3.36.84.93.79h0c-.02.37-.01.74.52.73.08.02.19.02.22.07,2.55,3.51,5.32,6.8,8.61,9.68,5.56,4.88,11.79,8.53,18.79,10.92,1.72.59,3.54.85,5.19,1.64-.4-.03-.8-.03-1.19-.11-5.78-1.18-11.34-3.02-16.62-5.65-12.5-6.25-22.26-15.43-29.16-27.57-4.88-8.58-7.7-17.82-8.51-27.67-.11-1.32-.41-2.38-.41-3.96-.1-1.19,0-2.24,0-3.35Z"/>
      <path fill="#22386c" d="M73.95,135.29c-1.58.28-3.22.03-4.79.5h-2.4c-.3-.49-.81-.11-1.19-.28-.54-.35-1.13-.22-1.71-.18h.02c-.13-.07-.25-.21-.39-.23-4.91-.76-8.94-3.29-12.75-6.27-.06-.49-.47-.72-.77-1.03-2.52-2.58-4.42-5.56-5.5-9-2.67-8.51-.98-16.42,3.76-23.72,3.74-5.75,8.61-10.58,13.55-15.29,2.07-1.97,4.21-3.87,6.52-5.63,6.74,5.97,13.25,12.06,18.84,19,8.05,10.01,8.87,25.67-1.16,35.43-.04.07-.07.15-.13.2-3.31,2.78-6.94,4.98-11.19,6.03-.32.08-.65.05-.71.47ZM57.57,96.55c-1.21,1.57-2.01,3.33-2.69,5.13-2.09,5.51-2.94,11.11-.81,16.8,1.46,3.89,3.77,7.15,7.77,8.8,3.29,1.36,6.52,1.23,9.36-1.1,2.64-2.16,2.58-5.71-.04-7.87-.7-.58-1.49-1.07-2.28-1.54-1.53-.93-3.12-1.78-4.64-2.73-4.64-2.9-6.97-7.08-6.9-12.58.02-1.64.19-3.25.22-4.92Z"/>
      <path fill="#245895" d="M63.88,135.34c-1.04.04-2.07,0-3.09-.26-1.19-.37-2.36-.8-3.63-.79-.14,0-.29,0-.43,0-.19-.57-.76-.51-1.18-.66-6.19-2.07-11.66-5.29-16.21-9.99-1.25-1.29-2.47-2.59-3.71-3.89-.06-.42-.36-.7-.59-1.03-6.86-9.63-9.25-20.31-7.08-31.89,4.2-22.38,26.16-36.89,48.66-32.29,23.41,4.79,37.79,28.78,31.01,51.67-1.49,5.03-3.94,9.55-7.03,13.76h.01c-.2.1-.36.23-.25.49l.02-.03c-.23-.06-.26.09-.26.26l.02-.02c-.18-.02-.24.09-.24.25-.81.42-1.18,1.27-1.78,1.89-4.14,4.24-8.91,7.55-14.41,9.81-1.31.54-2.76.72-3.97,1.53-.15,0-.29.02-.44.03-1.25.19-2.48.46-3.67.89-.54.22-1.09.31-1.67.21.07-.42.39-.39.71-.47,4.25-1.04,7.88-3.24,11.19-6.03.06-.05.09-.13.13-.2.64.12,1.04-.34,1.49-.64,11.29-7.73,16.75-22.07,13.47-35.36-4.35-17.65-21.42-28.5-39.4-25.05-14.89,2.86-26.56,16.46-26.87,31.54-.26,12.78,5.15,22.69,15.73,29.82.18.12.26.11.34-.07,3.81,2.98,7.85,5.5,12.75,6.27.14.02.26.16.39.24Z"/>
      <path fill="#2a7db7" d="M80.43,134.32c-.25.01-.5.09-.69-.15,1.2-.81,2.66-.99,3.97-1.53,5.5-2.26,10.26-5.58,14.41-9.81.61-.62.97-1.47,1.78-1.89.08-.08.16-.16.24-.25,0,0-.02.02-.02.02.09-.09.18-.18.26-.26,0,0-.02.03-.02.03.19-.12.42-.21.25-.51,0,0-.01.01-.01.01.71.02.97-.6,1.34-1,10.67-11.7,14.83-25.42,11.75-40.91-4.7-23.59-26.15-39.24-50.05-36.94-10.82,1.04-20.21,5.38-27.86,13.04-10.95,10.95-15.45,24.25-13.41,39.61,1.32,9.97,5.72,18.51,12.69,25.73.12.13.19.64.58.25,1.23,1.3,2.46,2.6,3.71,3.89,4.55,4.7,10.03,7.92,16.21,9.99.42.14.99.08,1.18.66-.26.03-.53.06-.79.09,0,0,0,.01,0,.01-1.65-.79-3.47-1.06-5.19-1.64-7-2.4-13.23-6.05-18.79-10.92-3.29-2.88-6.05-6.17-8.61-9.68-.04-.05-.15-.05-.22-.07-.08-.31-.11-.66-.52-.74,0,0,0,0,0,0,.05-.45-.29-.73-.5-1.05-4.88-7.7-7.69-16.1-8.32-25.17-.75-10.76,1.41-20.95,6.69-30.4,11.8-21.12,35.59-31.81,59.04-26.88,25.94,5.45,44.16,28.84,43.21,55.02-.27,7.4-1.91,14.42-4.97,21.15-1.16,2.54-2.69,4.88-3.98,7.34,0,0,0-.01,0-.01-.24.09-.35.24-.25.5,0,0,.02-.02.02-.02-.15-.11-.27-.04-.36.07-.02.03.07.15.11.24-2.08,2.29-3.82,4.87-6.02,7.07-7.4,7.42-16.14,12.43-26.33,14.92-.19.05-.36.14-.54.21Z"/>
    </g>
  </g>
</svg>