<?xml version="1.0" encoding="UTF-8"?>
<svg id="Layer_2" data-name="Layer 2" xmlns="http://www.w3.org/2000/svg" viewBox="0 0 448.23 135.79">
  <g id="Layer_1-2" data-name="Layer 1">
    <g>
      <path fill="#21a0d7" d="M.04,66.29c.18-1.45.3-2.72.42-4.08.86-9.97,3.68-19.34,8.75-27.95C19.3,17.15,34.04,6.16,53.45,1.76c14.84-3.37,29.37-1.92,43.15,4.59,20.15,9.52,33.01,25.25,37.93,46.95,4.13,18.21,1.05,35.49-9.09,51.23-10.28,15.96-24.91,25.88-43.51,29.9-.47.1-.95.14-1.42.21-.03-.03-.05-.07-.08-.1.18-.07.36-.16.54-.21,10.19-2.49,18.94-7.5,26.33-14.92,2.2-2.2,3.93-4.78,6.02-7.07.08-.1.17-.2.25-.3l-.02.02c.24-.09.38-.22.25-.5h0c.54.12.64-.38.86-.66,10.5-13.3,14.71-28.37,12.62-45.15-1.52-12.16-6.41-22.9-14.73-31.85-14.93-16.06-33.49-22.56-55.09-18.74-18.93,3.35-33,14.04-42.09,30.97-6.33,11.79-8.1,24.43-5.91,37.59,1.67,10.08,5.82,19.1,12.23,27.07.24.3.36.84.93.79h0c-.02.37-.01.74.52.73.08.02.19.02.22.07,2.55,3.51,5.32,6.8,8.61,9.68,5.56,4.88,11.79,8.53,18.79,10.92,1.72.59,3.54.85,5.19,1.64-.4-.03-.8-.03-1.19-.11-5.78-1.18-11.34-3.02-16.62-5.65-12.5-6.25-22.26-15.43-29.16-27.57-4.88-8.58-7.7-17.82-8.51-27.67-.11-1.32-.41-2.38-.41-3.96-.1-1.19,0-2.24,0-3.35Z"/>
      <path fill="#22386c" d="M73.95,135.29c-1.58.28-3.22.03-4.79.5h-2.4c-.3-.49-.81-.11-1.19-.28-.54-.35-1.13-.22-1.71-.18h.02c-.13-.07-.25-.21-.39-.23-4.91-.76-8.94-3.29-12.75-6.27-.06-.49-.47-.72-.77-1.03-2.52-2.58-4.42-5.56-5.5-9-2.67-8.51-.98-16.42,3.76-23.72,3.74-5.75,8.61-10.58,13.55-15.29,2.07-1.97,4.21-3.87,6.52-5.63,6.74,5.97,13.25,12.06,18.84,19,8.05,10.01,8.87,25.67-1.16,35.43-.04.07-.07.15-.13.2-3.31,2.78-6.94,4.98-11.19,6.03-.32.08-.65.05-.71.47ZM57.57,96.55c-1.21,1.57-2.01,3.33-2.69,5.13-2.09,5.51-2.94,11.11-.81,16.8,1.46,3.89,3.77,7.15,7.77,8.8,3.29,1.36,6.52,1.23,9.36-1.1,2.64-2.16,2.58-5.71-.04-7.87-.7-.58-1.49-1.07-2.28-1.54-1.53-.93-3.12-1.78-4.64-2.73-4.64-2.9-6.97-7.08-6.9-12.58.02-1.64.19-3.25.22-4.92Z"/>
      <path fill="#21a0d7" d="M197.91,39.73c-1.15,3.34-2.31,6.68-3.46,10.02-2.28,6.63-4.58,13.26-6.82,19.91-.27.79-.65,1.03-1.45,1.01-2.24-.06-4.48-.08-6.72,0-1.13.05-1.66-.3-2.03-1.4-3.88-11.52-7.82-23.02-11.74-34.53-1.3-3.81-2.6-7.62-3.9-11.43-.1-.3-.28-.58-.19-.94.18-.28.48-.18.74-.19,3.2,0,6.4.02,9.6-.02.75,0,1.01.27,1.22.96,3.18,10.41,6.4,20.8,9.69,31.46.61-1.81,1.17-3.4,1.69-5,2.92-8.9,5.85-17.8,8.74-26.7.24-.75.62-.94,1.37-.93,2.36.05,4.72.07,7.08,0,.87-.03,1.15.32,1.39,1.06,3.33,10.07,6.68,20.13,10.03,30.19.11.34.23.67.45,1.31.69-2.22,1.31-4.17,1.91-6.13,2.59-8.5,5.17-17,7.76-25.5.12-.4.15-.88.78-.88,3.47.01,6.94,0,10.36,0,.27.53,0,.89-.12,1.25-4.95,14.65-9.89,29.3-14.86,43.95-.38,1.12-.42,2.6-1.32,3.25-.86.62-2.25.16-3.4.18-1.6.03-3.2-.03-4.8.03-.74.03-1.05-.27-1.27-.92-3.29-9.53-6.6-19.06-9.9-28.58-.17-.48-.35-.96-.53-1.43-.1,0-.2,0-.3,0Z"/>
      <path fill="#245895" d="M63.88,135.34c-1.04.04-2.07,0-3.09-.26-1.19-.37-2.36-.8-3.63-.79-.14,0-.29,0-.43,0-.19-.57-.76-.51-1.18-.66-6.19-2.07-11.66-5.29-16.21-9.99-1.25-1.29-2.47-2.59-3.71-3.89-.06-.42-.36-.7-.59-1.03-6.86-9.63-9.25-20.31-7.08-31.89,4.2-22.38,26.16-36.89,48.66-32.29,23.41,4.79,37.79,28.78,31.01,51.67-1.49,5.03-3.94,9.55-7.03,13.76h.01c-.2.1-.36.23-.25.49l.02-.03c-.23-.06-.26.09-.26.26l.02-.02c-.18-.02-.24.09-.24.25-.81.42-1.18,1.27-1.78,1.89-4.14,4.24-8.91,7.55-14.41,9.81-1.31.54-2.76.72-3.97,1.53-.15,0-.29.02-.44.03-1.25.19-2.48.46-3.67.89-.54.22-1.09.31-1.67.21.07-.42.39-.39.71-.47,4.25-1.04,7.88-3.24,11.19-6.03.06-.05.09-.13.13-.2.64.12,1.04-.34,1.49-.64,11.29-7.73,16.75-22.07,13.47-35.36-4.35-17.65-21.42-28.5-39.4-25.05-14.89,2.86-26.56,16.46-26.87,31.54-.26,12.78,5.15,22.69,15.73,29.82.18.12.26.11.34-.07,3.81,2.98,7.85,5.5,12.75,6.27.14.02.26.16.39.24Z"/>
      <path fill="#22386c" d="M443.29,59.7c1.66,1.4,3.25,2.74,4.94,4.18-2.24,2.5-4.46,4.99-6.79,7.58-1.78-1.57-3.52-3.12-5.34-4.72-2.69,1.68-5.58,2.89-8.69,3.53-11.03,2.26-22.81-2.03-28.34-12.37-7.5-14.04-.57-32.69,17.02-36.32,8.82-1.82,16.95-.04,23.72,6.21,8.41,7.77,10.15,21.04,4.16,30.81-.21.34-.42.67-.69,1.11ZM434.97,52.46c1.15-2.24,1.55-5.14,1.21-8.57-.95-9.58-10.74-15.6-19.74-12.13-5.89,2.27-9.37,7.99-9.11,14.99.31,8.35,7.01,14.59,15.34,14.23,1.84-.08,3.65-.39,5.42-1.32-2.66-2.26-5.2-4.42-7.78-6.61,2.29-2.57,4.52-5.07,6.8-7.64,2.65,2.37,5.24,4.71,7.86,7.05Z"/>
      <path fill="#22a0d8" d="M258.2,49.08c.42-3.69-1.76-6.43-5.45-6.98-3.89-.57-7.62.14-11.3,1.37-.37.12-.72.37-1.32.27-.56-1.68-1.15-3.44-1.73-5.2-.91-2.72-.92-2.76,1.81-3.73,5.61-1.99,11.36-2.56,17.2-1.35,6.14,1.27,9.74,5.17,10.73,11.35.17,1.07.27,2.14.27,3.21,0,7.1,0,14.21,0,21.31,0,.27-.04.54-.07.89h-10.03v-3.78c-.62.52-1.03.86-1.44,1.21-4.75,4.14-13.32,4.47-18.32.69-3.31-2.5-4.4-5.95-4.1-9.92.49-6.57,5.04-9.33,10.09-10.3,4.4-.85,8.74-.53,13.01.8.19.06.38.09.66.16ZM251.99,54.06c-2.45,0-3.99.35-5.29,1.17-1.64,1.03-2.22,2.55-2.07,4.4.14,1.73,1.15,2.84,2.7,3.49,1.24.53,2.55.63,3.88.52,4.65-.37,7.33-3.03,7.32-7.18,0-.8-.22-1.22-1.02-1.48-1.8-.58-3.62-.96-5.51-.92Z"/>
      <path fill="#21a0d7" d="M339.04,55.32h-25.61c.39,2.36,1.44,4.17,3.24,5.5,3.56,2.63,9.29,2.22,13.18-.88q1.51-1.2,2.93.07c1.49,1.32,2.99,2.63,4.56,4.02-1.9,2.42-4.19,4.22-6.96,5.38-7.58,3.17-17.51,1.66-23-4.75-2.44-2.84-3.9-6.13-4.33-9.81-.63-5.44.23-10.62,3.62-15.09,4.64-6.12,10.96-8.21,18.35-6.88,7.43,1.35,11.58,6.27,13.41,13.34.76,2.95.95,5.95.61,9.1ZM328.79,48.74c-.15-4.53-3.73-7.99-7.96-7.8-4.59.21-7.38,4.39-7.43,7.8h15.39Z"/>
      <path fill="#22a0d8" d="M278.73,42.33h-4.24v-8.97c1.3-.27,2.7-.01,4.21-.18v-9.23h10.55v9.24h8.53c.45.52.28,1.02.29,1.48.02,2.19-.02,4.39.02,6.58.01.78-.25,1.05-1.04,1.03-2.08-.04-4.16-.02-6.24,0-.47,0-.96-.08-1.4.18-.21.42-.11.87-.11,1.3,0,4.39-.01,8.78,0,13.17,0,.71.07,1.43.18,2.14.23,1.53,1.19,2.36,2.77,2.45,1.58.09,3.1-.22,4.56-.79.32-.13.65-.25,1.09-.42,0,2.71,0,5.3,0,7.88,0,.51-.31.69-.68.87-4.38,2.15-8.9,2.51-13.44.7-3.31-1.32-4.57-4.26-4.81-7.56-.45-6.09-.15-12.2-.24-18.3,0-.47,0-.94,0-1.56Z"/>
      <path fill="#21a0d7" d="M357.28,70.06h-10.32v-36.8c3.44-.16,6.86.1,10.39-.17v6.84c.94-1.17,1.58-2.47,2.49-3.6,2.23-2.75,5.21-3.83,8.64-3.92.47-.01.71.19.71.72-.02,3.39,0,6.78,0,10.19-.93.34-1.86.13-2.76.3-4.66.84-7.53,3.61-8.5,8.25-.31,1.48-.48,2.99-.47,4.51.01,4.11,0,8.22,0,12.33,0,.43.11.87-.17,1.36Z"/>
      <path fill="#22386c" d="M387.94,70.05h-10.56V21.9c3.47-.24,6.96-.06,10.56-.13v48.29Z"/>
      <path fill="#273b6e" d="M355.02,110.07c2.41,1.35,4.87,2.02,7.53,1.82,3.58-.26,5.26-2.27,4.91-5.88-.3-.07-.41.21-.55.36-2.59,2.66-5.7,3.04-9.04,1.89-3.43-1.18-5.26-3.78-5.7-7.3-.31-2.5-.04-4.93,1.4-7.12,2.94-4.46,9.33-5.25,13.27-1.65.17.15.33.31.66.61v-2.45h5.6c.28.25.16.59.16.89,0,5.11.04,10.21,0,15.32-.03,2.86-.62,5.56-2.88,7.59-1.81,1.62-4.06,2.11-6.41,2.32-3.78.35-7.38-.28-10.92-2.01.65-1.44,1.27-2.83,1.97-4.39ZM357.88,99.41c0,2.73,2.02,4.65,4.85,4.61,2.84-.04,4.82-1.96,4.81-4.67,0-2.69-2.05-4.62-4.88-4.61-2.83.01-4.79,1.93-4.79,4.68Z"/>
      <path fill="#22386c" d="M263.34,110.4h-5.62c-.27-.37-.14-.78-.14-1.17-.01-3.43.02-6.87-.01-10.3-.03-2.71-1.72-4.14-4.25-3.66-1.67.32-2.67,1.69-2.69,3.86-.03,3.27,0,6.55,0,9.82,0,.44,0,.87,0,1.39h-5.69v-27.26h5.67v9.94c.43-.47.67-.75.94-1.02,2.07-2.09,5.13-2.71,7.85-1.56,2.78,1.17,3.88,3.48,3.92,6.3.08,4.51.02,9.02.02,13.65Z"/>
      <path fill="#273b6e" d="M301.56,110.92c-6.21-.03-10.87-4.54-10.86-10.5.01-5.94,4.87-10.63,11.02-10.53,7.27.12,11.06,5.71,10.87,10.88-.21,5.67-4.94,10.17-11.02,10.14ZM306.81,100.53c0-3.21-2.25-5.66-5.22-5.66-2.95,0-5.14,2.3-5.16,5.43-.02,3.19,2.24,5.61,5.25,5.62,3,.01,5.12-2.22,5.13-5.4Z"/>
      <path fill="#273b6e" d="M337.89,110.92c-6.16,0-10.92-4.57-10.91-10.48.01-5.9,4.93-10.61,11.04-10.56,6.17.05,10.92,4.63,10.9,10.52-.02,5.97-4.79,10.52-11.02,10.52ZM338.06,105.93c2.96-.03,5.15-2.35,5.15-5.45,0-3.1-2.44-5.65-5.36-5.6-2.93.05-5.15,2.41-5.14,5.49,0,3.14,2.36,5.59,5.35,5.56Z"/>
      <path fill="#273b6e" d="M214.96,104.25c1.06.94,2.13,1.88,3.2,2.83-.3.6-.76.98-1.2,1.37-3.17,2.81-8.32,3.31-12.37,1.21-3.6-1.87-5.66-5.95-5.17-10.25.54-4.69,3.19-8.05,7.23-9.14,6.46-1.74,12.15,2.5,12.5,9.32.05.91,0,1.82,0,2.83h-13.86c.41,4.15,5.04,4.99,9.66,1.83Z"/>
      <path fill="#273b6e" d="M408.44,102.45h-13.88c.25,1.62,1.08,2.76,2.47,3.33,2.65,1.09,5,.39,7.17-1.58,1.1.96,2.2,1.92,3.31,2.89-.58.91-1.35,1.54-2.17,2.1-4.5,3.08-11.39,2.03-14.59-2.22-3.38-4.49-2.57-11.37,1.73-14.92,4.49-3.72,14.05-3.19,15.79,5.99.27,1.41.37,2.83.16,4.42ZM402.75,98.68c-.11-2.38-1.78-4.08-3.99-4.1-2.27-.02-4.03,1.68-4.21,4.1h8.21Z"/>
      <path fill="#273b6e" d="M286.83,110.38h-5.63c-.3-.36-.13-.82-.14-1.23-.07-3.55.16-7.1-.13-10.64-.19-2.28-1.38-3.34-3.44-3.3-2.02.04-3.3,1.23-3.36,3.41-.1,3.47-.06,6.94-.09,10.41,0,.43,0,.86,0,1.35h-5.74v-20.03h5.59c.36.72,0,1.54.23,2.3.43,0,.56-.34.76-.55,2.15-2.24,4.76-2.67,7.59-1.78,2.71.86,3.98,2.98,4.21,5.69.36,4.22.07,8.45.15,12.68,0,.55,0,1.1,0,1.7Z"/>
      <path fill="#273b6e" d="M200.47,84.22v5.27h-7.89v20.88h-5.91v-20.78h-7.94v-5.38h21.73Z"/>
      <path fill="#273b6e" d="M427.12,92.37c-.75,1.35-1.46,2.63-2.2,3.96-1.33-.67-2.56-1.33-3.92-1.65-.86-.2-1.74-.32-2.61-.06-.51.16-.93.47-.99,1.08-.05.54.23.91.66,1.18.75.48,1.59.75,2.42,1.03,1.28.43,2.58.84,3.79,1.46,2.32,1.2,3.53,3.01,3.25,5.71-.27,2.63-1.65,4.38-4.11,5.2-3.23,1.08-6.38.62-9.44-.74-.99-.44-1.9-1.01-2.87-1.75.82-1.26,1.63-2.51,2.48-3.81,1.55,1.03,3.08,1.87,4.82,2.22.98.2,1.98.29,2.96-.06.54-.19.88-.54.94-1.12.06-.59-.25-.99-.74-1.26-.99-.54-2.08-.79-3.14-1.12-1.03-.32-2.06-.63-3.02-1.12-2.06-1.05-3.26-2.64-3.26-5.02,0-2.44.98-4.35,3.16-5.5,2.85-1.5,5.8-1.18,8.72-.21,1.06.35,2.07.83,3.09,1.58Z"/>
      <path fill="#273b6e" d="M241.09,93.36c-1.19,1.28-2.33,2.5-3.47,3.72-2.55-2.62-5.9-3.03-8.14-.51-1.85,2.08-1.81,5.77.09,7.8,2.08,2.23,4.82,2.06,8.17-.46,1.11,1.08,2.22,2.16,3.34,3.25-1.88,3-6.57,4.5-10.87,3.45-4.39-1.07-7.37-4.69-7.8-9.49-.38-4.28,2.16-8.55,6.17-10.32,4.26-1.88,9.39-.87,12.52,2.56Z"/>
      <path fill="#22386c" d="M316.96,83.08h5.62v27.28h-5.62v-27.28Z"/>
      <path fill="#273b6e" d="M378.64,110.38v-20.02h5.66v20.02h-5.66Z"/>
      <path fill="#273b6e" d="M378.46,83.07h5.99v5.03h-5.99v-5.03Z"/>
      <path fill="#273b6e" d="M440.15,94.07h-1.09v-2.96l-.21-.09c-.4.59-.79,1.18-1.22,1.8-.68-.45-.79-1.29-1.5-1.87v2.99c-.44.27-.78.12-1.18.17v-5.17q1.14-.22,2.57,1.82c.95-.51.83-2.46,2.63-1.88v5.2Z"/>
      <path fill="#273b6e" d="M433.8,88.84c.46,1.54-.82.92-1.48,1.21v4.01h-1.21v-3.83c-.5-.51-1.1-.12-1.55-.41-.17-.3-.08-.61-.06-.98h4.3Z"/>
      <path fill="#2a7db7" d="M80.43,134.32c-.25.01-.5.09-.69-.15,1.2-.81,2.66-.99,3.97-1.53,5.5-2.26,10.26-5.58,14.41-9.81.61-.62.97-1.47,1.78-1.89.08-.08.16-.16.24-.25,0,0-.02.02-.02.02.09-.09.18-.18.26-.26,0,0-.02.03-.02.03.19-.12.42-.21.25-.51,0,0-.01.01-.01.01.71.02.97-.6,1.34-1,10.67-11.7,14.83-25.42,11.75-40.91-4.7-23.59-26.15-39.24-50.05-36.94-10.82,1.04-20.21,5.38-27.86,13.04-10.95,10.95-15.45,24.25-13.41,39.61,1.32,9.97,5.72,18.51,12.69,25.73.12.13.19.64.58.25,1.23,1.3,2.46,2.6,3.71,3.89,4.55,4.7,10.03,7.92,16.21,9.99.42.14.99.08,1.18.66-.26.03-.53.06-.79.09,0,0,0,.01,0,.01-1.65-.79-3.47-1.06-5.19-1.64-7-2.4-13.23-6.05-18.79-10.92-3.29-2.88-6.05-6.17-8.61-9.68-.04-.05-.15-.05-.22-.07-.08-.31-.11-.66-.52-.74,0,0,0,0,0,0,.05-.45-.29-.73-.5-1.05-4.88-7.7-7.69-16.1-8.32-25.17-.75-10.76,1.41-20.95,6.69-30.4,11.8-21.12,35.59-31.81,59.04-26.88,25.94,5.45,44.16,28.84,43.21,55.02-.27,7.4-1.91,14.42-4.97,21.15-1.16,2.54-2.69,4.88-3.98,7.34,0,0,0-.01,0-.01-.24.09-.35.24-.25.5,0,0,.02-.02.02-.02-.15-.11-.27-.04-.36.07-.02.03.07.15.11.24-2.08,2.29-3.82,4.87-6.02,7.07-7.4,7.42-16.14,12.43-26.33,14.92-.19.05-.36.14-.54.21Z"/>
    </g>
  </g>
</svg>